<?xml version="1.0" encoding="UTF-8" standalone="no"?>
<svg
   viewBox="0 0 450 399.99999"
   width="450"
   height="400"
   xml:space="preserve"
   overflow="hidden"
   version="1.1"
   id="svg10"
   sodipodi:docname="laptop.svg"
   inkscape:version="1.3.2 (091e20e, 2023-11-25)"
   xmlns:inkscape="http://www.inkscape.org/namespaces/inkscape"
   xmlns:sodipodi="http://sodipodi.sourceforge.net/DTD/sodipodi-0.dtd"
   xmlns="http://www.w3.org/2000/svg"
   xmlns:svg="http://www.w3.org/2000/svg"><defs
     id="defs10" /><sodipodi:namedview
     id="namedview10"
     pagecolor="#ffffff"
     bordercolor="#000000"
     borderopacity="0.25"
     inkscape:showpageshadow="2"
     inkscape:pageopacity="0.0"
     inkscape:pagecheckerboard="0"
     inkscape:deskcolor="#d1d1d1"
     inkscape:zoom="0.8177887"
     inkscape:cx="137.5661"
     inkscape:cy="186.47849"
     inkscape:window-width="1312"
     inkscape:window-height="582"
     inkscape:window-x="403"
     inkscape:window-y="25"
     inkscape:window-maximized="0"
     inkscape:current-layer="svg10" /><g
     transform="matrix(0.96674968,0,0,0.96674968,-3547.2074,-1076.9766)"
     id="g10"><g
       id="g9"><path
         d="m 3949,1288 h -56 v -56 h 56 z"
         stroke="#a6a6a6"
         stroke-width="5.70643"
         stroke-linecap="butt"
         stroke-linejoin="round"
         stroke-miterlimit="10"
         stroke-opacity="1"
         fill="none"
         fill-rule="evenodd"
         id="path1" /><path
         d="m 3949,1366 h -56 v -56 h 56 z"
         stroke="#a6a6a6"
         stroke-width="5.70643"
         stroke-linecap="butt"
         stroke-linejoin="round"
         stroke-miterlimit="10"
         stroke-opacity="1"
         fill="none"
         fill-rule="evenodd"
         id="path2" /><path
         d="m 3869,1288 h -55 v -56 h 55 z"
         stroke="#a6a6a6"
         stroke-width="5.70643"
         stroke-linecap="butt"
         stroke-linejoin="round"
         stroke-miterlimit="10"
         stroke-opacity="1"
         fill="none"
         fill-rule="evenodd"
         id="path3" /><path
         d="m 3869,1366 h -55 v -56 h 55 z"
         stroke="#a6a6a6"
         stroke-width="5.70643"
         stroke-linecap="butt"
         stroke-linejoin="round"
         stroke-miterlimit="10"
         stroke-opacity="1"
         fill="none"
         fill-rule="evenodd"
         id="path4" /><path
         d="m 4024,1267.76 v -57.8 c 0,-4.4 -3.56,-7.96 -7.95,-7.96 h -270.1 c -4.39,0 -7.95,3.56 -7.95,7.96 v 180.08 c 0,4.4 3.56,7.96 7.95,7.96 h 217.87"
         stroke="#a6a6a6"
         stroke-width="5.70643"
         stroke-linecap="butt"
         stroke-linejoin="round"
         stroke-miterlimit="10"
         stroke-opacity="1"
         fill="none"
         fill-rule="evenodd"
         id="path5" /><path
         d="m 4044,1268.7 v -77.73 c 0.02,-4.38 -3.52,-7.95 -7.9,-7.97 -0.01,0 -0.02,0 -0.03,0 h -310.14 c -4.38,0.02 -7.93,3.58 -7.93,7.97 v 222.06 c 0,4.39 3.55,7.95 7.93,7.97 h 226.93"
         stroke="#a6a6a6"
         stroke-width="5.70643"
         stroke-linecap="butt"
         stroke-linejoin="round"
         stroke-miterlimit="10"
         stroke-opacity="1"
         fill="none"
         fill-rule="evenodd"
         id="path6" /><path
         d="m 3943,1450 h -236.63 c 0,0 -16.91,0.17 -23.37,-10.11 V 1421 h 38.05"
         stroke="#a6a6a6"
         stroke-width="5.70643"
         stroke-linecap="butt"
         stroke-linejoin="round"
         stroke-miterlimit="10"
         stroke-opacity="1"
         fill="none"
         fill-rule="evenodd"
         id="path7" /><path
         d="m 4089,1334.53 c 0.02,-25.13 -20.34,-45.51 -45.47,-45.53 -25.13,-0.02 -45.51,20.34 -45.53,45.47 -0.02,25.13 20.34,45.51 45.47,45.53 0.01,0 0.02,0 0.03,0 25.12,0 45.48,-20.35 45.5,-45.47"
         stroke="#ff9900"
         stroke-width="5.70643"
         stroke-linecap="butt"
         stroke-linejoin="round"
         stroke-miterlimit="10"
         stroke-opacity="1"
         fill="none"
         fill-rule="evenodd"
         id="path8" /><path
         d="m 4124,1465 h -160 c -0.2,-28.92 14.56,-55.88 39.01,-71.29 12.29,-7.66 26.49,-11.72 40.98,-11.71 44.21,0 80.01,37.15 80.01,83 z"
         stroke="#ff9900"
         stroke-width="5.70643"
         stroke-linecap="butt"
         stroke-linejoin="round"
         stroke-miterlimit="10"
         stroke-opacity="1"
         fill="none"
         fill-rule="evenodd"
         id="path9" /></g></g></svg>
