<?xml version="1.0" encoding="UTF-8" standalone="no" ?>
<!DOCTYPE svg PUBLIC "-//W3C//DTD SVG 1.1//EN" "http://www.w3.org/Graphics/SVG/1.1/DTD/svg11.dtd">
<svg xmlns="http://www.w3.org/2000/svg" xmlns:xlink="http://www.w3.org/1999/xlink" version="1.1" width="450" height="400" viewBox="0 0 450 400" xml:space="preserve">
<desc>Created with Fabric.js 3.6.6</desc>
<defs>
</defs>
<g transform="matrix(1 0 0 1 540 540)"  >
<rect style="stroke: none; stroke-width: 1; stroke-dasharray: none; stroke-linecap: butt; stroke-dashoffset: 0; stroke-linejoin: miter; stroke-miterlimit: 4; fill: rgb(166,166,166); fill-rule: nonzero; opacity: 1; visibility: hidden;"  x="-540" y="-540" rx="0" ry="0" width="1080" height="1080" />
</g>
<g transform="matrix(1 0 0 1 46.44 201.83)"  >
<path style="stroke: rgb(166,166,166); stroke-width: 5.71; stroke-dasharray: none; stroke-linecap: butt; stroke-dashoffset: 0; stroke-linejoin: round; stroke-miterlimit: 10; fill: rgb(0,0,0); fill-opacity: 0; fill-rule: evenodd; opacity: 1;"  transform=" translate(-2434.43, -638.83)" d="M 2429.5 739.017 L 2429.5 538.64 L 2439.37 538.64" stroke-linecap="round" />
</g>
<g transform="matrix(1 0 0 1 41.5 331.15)"  >
<path style="stroke: rgb(166,166,166); stroke-width: 5.71; stroke-dasharray: none; stroke-linecap: butt; stroke-dashoffset: 0; stroke-linejoin: round; stroke-miterlimit: 10; fill: rgb(0,0,0); fill-opacity: 0; fill-rule: evenodd; opacity: 1;"  transform=" translate(-2429.5, -768.14)" d="M 2429.5 783.6 L 2429.5 752.679" stroke-linecap="round" />
</g>
<g transform="matrix(1 0 0 1 56.5 280.5)"  >
<path style="stroke: rgb(166,166,166); stroke-width: 5.71; stroke-dasharray: none; stroke-linecap: butt; stroke-dashoffset: 0; stroke-linejoin: round; stroke-miterlimit: 10; fill: rgb(0,0,0); fill-opacity: 0; fill-rule: evenodd; opacity: 1;"  transform=" translate(-2444.5, -717.5)" d="M 2459.43 609.648 L 2459.43 825.352 L 2429.57 825.352 L 2429.57 797.974" stroke-linecap="round" />
</g>
<g transform="matrix(1 0 0 1 393.01 244.97)"  >
<path style="stroke: rgb(166,166,166); stroke-width: 5.71; stroke-dasharray: none; stroke-linecap: butt; stroke-dashoffset: 0; stroke-linejoin: round; stroke-miterlimit: 10; fill: rgb(0,0,0); fill-opacity: 0; fill-rule: evenodd; opacity: 1;"  transform=" translate(-2781, -681.97)" d="M 2787.96 538.647 L 2796.32 538.647 L 2796.32 825.288 L 2765.68 825.288 L 2765.68 597.799" stroke-linecap="round" />
</g>
<g transform="matrix(1 0 0 1 348.55 375.5)"  >
<path style="stroke: rgb(166,166,166); stroke-width: 5.71; stroke-dasharray: none; stroke-linecap: butt; stroke-dashoffset: 0; stroke-linejoin: round; stroke-miterlimit: 10; fill: rgb(0,0,0); fill-opacity: 0; fill-rule: evenodd; opacity: 1;"  transform=" translate(-2736.55, -812.5)" d="M 2719.6 812.5 L 2753.49 812.5" stroke-linecap="round" />
</g>
<g transform="matrix(1 0 0 1 296.83 375.5)"  >
<path style="stroke: rgb(166,166,166); stroke-width: 5.71; stroke-dasharray: none; stroke-linecap: butt; stroke-dashoffset: 0; stroke-linejoin: round; stroke-miterlimit: 10; fill: rgb(0,0,0); fill-opacity: 0; fill-rule: evenodd; opacity: 1;"  transform=" translate(-2684.82, -812.5)" d="M 2667.6 812.5 L 2702.04 812.5" stroke-linecap="round" />
</g>
<g transform="matrix(1 0 0 1 175.84 375.5)"  >
<path style="stroke: rgb(166,166,166); stroke-width: 5.71; stroke-dasharray: none; stroke-linecap: butt; stroke-dashoffset: 0; stroke-linejoin: round; stroke-miterlimit: 10; fill: rgb(0,0,0); fill-opacity: 0; fill-rule: evenodd; opacity: 1;"  transform=" translate(-2563.83, -812.5)" d="M 2471.65 812.5 L 2656.01 812.5" stroke-linecap="round" />
</g>
<g transform="matrix(1 0 0 1 312.26 121.5)"  >
<path style="stroke: rgb(166,166,166); stroke-width: 5.71; stroke-dasharray: none; stroke-linecap: butt; stroke-dashoffset: 0; stroke-linejoin: round; stroke-miterlimit: 10; fill: rgb(0,0,0); fill-opacity: 0; fill-rule: evenodd; opacity: 1;"  transform=" translate(-2700.25, -558.5)" d="M 2672.66 558.5 L 2727.84 558.5" stroke-linecap="round" />
</g>
<g transform="matrix(1 0 0 1 155.78 121.5)"  >
<path style="stroke: rgb(166,166,166); stroke-width: 5.71; stroke-dasharray: none; stroke-linecap: butt; stroke-dashoffset: 0; stroke-linejoin: round; stroke-miterlimit: 10; fill: rgb(0,0,0); fill-opacity: 0; fill-rule: evenodd; opacity: 1;"  transform=" translate(-2543.78, -558.5)" d="M 2525.63 558.5 L 2561.93 558.5" stroke-linecap="round" />
</g>
<g transform="matrix(1 0 0 1 314.46 146)"  >
<path style="stroke: rgb(166,166,166); stroke-width: 5.71; stroke-dasharray: none; stroke-linecap: butt; stroke-dashoffset: 0; stroke-linejoin: round; stroke-miterlimit: 10; fill: rgb(0,0,0); fill-opacity: 0; fill-rule: evenodd; opacity: 1;"  transform=" translate(-2702.45, -583)" d="M 2675.59 583 L 2729.32 583" stroke-linecap="round" />
</g>
<g transform="matrix(1 0 0 1 224.14 146)"  >
<path style="stroke: rgb(166,166,166); stroke-width: 5.71; stroke-dasharray: none; stroke-linecap: butt; stroke-dashoffset: 0; stroke-linejoin: round; stroke-miterlimit: 10; fill: rgb(0,0,0); fill-opacity: 0; fill-rule: evenodd; opacity: 1;"  transform=" translate(-2612.14, -583)" d="M 2606.75 583 L 2617.52 583" stroke-linecap="round" />
</g>
<g transform="matrix(1 0 0 1 152.51 146)"  >
<path style="stroke: rgb(166,166,166); stroke-width: 5.71; stroke-dasharray: none; stroke-linecap: butt; stroke-dashoffset: 0; stroke-linejoin: round; stroke-miterlimit: 10; fill: rgb(0,0,0); fill-opacity: 0; fill-rule: evenodd; opacity: 1;"  transform=" translate(-2540.51, -583)" d="M 2522.63 583 L 2558.38 583" stroke-linecap="round" />
</g>
<g transform="matrix(1 0 0 1 247.61 149.3)"  >
<path style="stroke: rgb(166,166,166); stroke-width: 5.71; stroke-dasharray: none; stroke-linecap: butt; stroke-dashoffset: 0; stroke-linejoin: round; stroke-miterlimit: 10; fill: rgb(0,0,0); fill-opacity: 0; fill-rule: evenodd; opacity: 1;"  transform=" translate(-2635.61, -586.3)" d="M 2643.58 585.5 L 2627.63 587.1" stroke-linecap="round" />
</g>
<g transform="matrix(1 0 0 1 250.74 175.44)"  >
<path style="stroke: rgb(166,166,166); stroke-width: 5.71; stroke-dasharray: none; stroke-linecap: butt; stroke-dashoffset: 0; stroke-linejoin: round; stroke-miterlimit: 10; fill: rgb(0,0,0); fill-opacity: 0; fill-rule: evenodd; opacity: 1;"  transform=" translate(-2638.74, -612.43)" d="M 2646.85 611.5 L 2630.63 613.367" stroke-linecap="round" />
</g>
<g transform="matrix(1 0 0 1 253.3 201.9)"  >
<path style="stroke: rgb(166,166,166); stroke-width: 5.71; stroke-dasharray: none; stroke-linecap: butt; stroke-dashoffset: 0; stroke-linejoin: round; stroke-miterlimit: 10; fill: rgb(0,0,0); fill-opacity: 0; fill-rule: evenodd; opacity: 1;"  transform=" translate(-2641.3, -638.9)" d="M 2649.78 638 L 2632.81 639.8" stroke-linecap="round" />
</g>
<g transform="matrix(1 0 0 1 255.74 228.3)"  >
<path style="stroke: rgb(166,166,166); stroke-width: 5.71; stroke-dasharray: none; stroke-linecap: butt; stroke-dashoffset: 0; stroke-linejoin: round; stroke-miterlimit: 10; fill: rgb(0,0,0); fill-opacity: 0; fill-rule: evenodd; opacity: 1;"  transform=" translate(-2643.74, -665.3)" d="M 2651.85 664.5 L 2635.63 666.1" stroke-linecap="round" />
</g>
<g transform="matrix(1 0 0 1 263 179.06)"  >
<path style="stroke: rgb(166,166,166); stroke-width: 5.71; stroke-dasharray: none; stroke-linecap: butt; stroke-dashoffset: 0; stroke-linejoin: round; stroke-miterlimit: 10; fill: rgb(0,0,0); fill-opacity: 0; fill-rule: evenodd; opacity: 1;"  transform=" translate(-2651, -616.05)" d="M 2637.03 681.464 L 2623.61 555.056 L 2664.7 550.64 L 2678.39 680.084" stroke-linecap="round" />
</g>
<g transform="matrix(1 0 0 1 208.69 166.61)"  >
<path style="stroke: rgb(255,153,0); stroke-width: 5.71; stroke-dasharray: none; stroke-linecap: butt; stroke-dashoffset: 0; stroke-linejoin: round; stroke-miterlimit: 10; fill: rgb(0,0,0); fill-opacity: 0; fill-rule: evenodd; opacity: 1;"  transform=" translate(-2596.68, -603.61)" d="M 2579.6 683.564 L 2613.77 523.65" stroke-linecap="round" />
</g>
<g transform="matrix(1 0 0 1 174.77 162.55)"  >
<path style="stroke: rgb(255,153,0); stroke-width: 5.71; stroke-dasharray: none; stroke-linecap: butt; stroke-dashoffset: 0; stroke-linejoin: round; stroke-miterlimit: 10; fill: rgb(0,0,0); fill-opacity: 0; fill-rule: evenodd; opacity: 1;"  transform=" translate(-2562.76, -599.55)" d="M 2580.82 517.637 L 2544.7 681.466" stroke-linecap="round" />
</g>
<g transform="matrix(1 0 0 1 262.28 37.01)"  >
<path style="stroke: rgb(255,153,0); stroke-width: 5.71; stroke-dasharray: none; stroke-linecap: butt; stroke-dashoffset: 0; stroke-linejoin: round; stroke-miterlimit: 10; fill: rgb(0,0,0); fill-opacity: 0; fill-rule: evenodd; opacity: 1;"  transform=" translate(-2650.27, -474)" d="M 2636.54 469.75 C 2639.5 473.434 2644.08 476.551 2649.19 477.684 C 2654.31 478.818 2659.69 478.251 2664 475.984" stroke-linecap="round" />
</g>
<g transform="matrix(1 0 0 1 255.07 64.73)"  >
<path style="stroke: rgb(255,153,0); stroke-width: 5.71; stroke-dasharray: none; stroke-linecap: butt; stroke-dashoffset: 0; stroke-linejoin: round; stroke-miterlimit: 10; fill: rgb(0,0,0); fill-opacity: 0; fill-rule: evenodd; opacity: 1;"  transform=" translate(-2643.07, -501.73)" d="M 2656.38 505.754 C 2653.55 502.114 2649.3 499.314 2644.2 498.194 C 2639.1 497.074 2634 497.914 2629.75 500.154" stroke-linecap="round" />
</g>
<g transform="matrix(1 0 0 1 185.01 54.37)"  >
<path style="stroke: rgb(255,153,0); stroke-width: 5.71; stroke-dasharray: none; stroke-linecap: butt; stroke-dashoffset: 0; stroke-linejoin: round; stroke-miterlimit: 10; fill: rgb(0,0,0); fill-opacity: 0; fill-rule: evenodd; opacity: 1;"  transform=" translate(-2573, -491.37)" d="M 2589.63 457.458 L 2635.35 467.459 L 2627.86 502.737 L 2613.46 526.07 L 2580.21 518.848 C 2580.21 518.848 2584.09 491.347 2574.94 486.07 C 2563.03 479.403 2537.53 495.236 2516.2 518.848 L 2510.66 513.57 C 2510.38 513.292 2550.28 448.847 2589.63 457.458 Z" stroke-linecap="round" />
</g>
<g transform="matrix(1 0 0 1 393.01 265.5)"  >
<path style="stroke: rgb(166,166,166); stroke-width: 5.71; stroke-dasharray: none; stroke-linecap: butt; stroke-dashoffset: 0; stroke-linejoin: round; stroke-miterlimit: 10; fill: rgb(0,0,0); fill-opacity: 0; fill-rule: evenodd; opacity: 1;"  transform=" translate(-2781, -702.5)" d="M 2765.68 702.5 L 2796.32 702.5" stroke-linecap="round" />
</g>
<g transform="matrix(1 0 0 1 326.7 265.5)"  >
<path style="stroke: rgb(166,166,166); stroke-width: 5.71; stroke-dasharray: none; stroke-linecap: butt; stroke-dashoffset: 0; stroke-linejoin: round; stroke-miterlimit: 10; fill: rgb(0,0,0); fill-opacity: 0; fill-rule: evenodd; opacity: 1;"  transform=" translate(-2714.69, -702.5)" d="M 2680.67 702.5 L 2748.72 702.5" stroke-linecap="round" />
</g>
<g transform="matrix(1 0 0 1 189.05 265.5)"  >
<path style="stroke: rgb(166,166,166); stroke-width: 5.71; stroke-dasharray: none; stroke-linecap: butt; stroke-dashoffset: 0; stroke-linejoin: round; stroke-miterlimit: 10; fill: rgb(0,0,0); fill-opacity: 0; fill-rule: evenodd; opacity: 1;"  transform=" translate(-2577.05, -702.5)" d="M 2472.65 702.5 L 2681.45 702.5" stroke-linecap="round" />
</g>
<g transform="matrix(1 0 0 1 56.5 265.5)"  >
<path style="stroke: rgb(166,166,166); stroke-width: 5.71; stroke-dasharray: none; stroke-linecap: butt; stroke-dashoffset: 0; stroke-linejoin: round; stroke-miterlimit: 10; fill: rgb(0,0,0); fill-opacity: 0; fill-rule: evenodd; opacity: 1;"  transform=" translate(-2444.5, -702.5)" d="M 2429.57 702.5 L 2459.43 702.5" stroke-linecap="round" />
</g>
<g transform="matrix(1 0 0 1 96.56 194.11)"  >
<path style="stroke: rgb(166,166,166); stroke-width: 5.71; stroke-dasharray: none; stroke-linecap: butt; stroke-dashoffset: 0; stroke-linejoin: round; stroke-miterlimit: 10; fill: rgb(0,0,0); fill-opacity: 0; fill-rule: evenodd; opacity: 1;"  transform=" translate(-2484.56, -631.11)" d="M 2521.43 683.558 L 2480.93 599.753 C 2467.24 599.753 2454.11 591.982 2447.69 578.663" stroke-linecap="round" />
</g>
<g transform="matrix(1 0 0 1 104.47 150.65)"  >
<path style="stroke: rgb(166,166,166); stroke-width: 5.71; stroke-dasharray: none; stroke-linecap: butt; stroke-dashoffset: 0; stroke-linejoin: round; stroke-miterlimit: 10; fill: rgb(0,0,0); fill-opacity: 0; fill-rule: evenodd; opacity: 1;"  transform=" translate(-2492.47, -587.64)" d="M 2448.23 579.488 C 2441.34 564.829 2444.65 547.956 2455.67 537.168 L 2468.63 564.275 L 2490.13 554.041 L 2477.18 526.935 C 2492.34 524.998 2507.78 533.019 2514.67 547.679 C 2521.01 560.679 2518.8 575.892 2510.53 586.403 L 2540.31 648.637" stroke-linecap="round" />
</g>
<g transform="matrix(1 0 0 1 359.49 142.86)"  >
<path style="stroke: rgb(255,153,0); stroke-width: 5.71; stroke-dasharray: none; stroke-linecap: butt; stroke-dashoffset: 0; stroke-linejoin: round; stroke-miterlimit: 10; fill: rgb(0,0,0); fill-opacity: 0; fill-rule: evenodd; opacity: 1;"  transform=" translate(-2747.48, -579.86)" d="M 2736.87 559.868 C 2736.04 559.042 2735.22 557.117 2736.04 555.192 L 2760.97 519.992 C 2761.79 518.067 2763.71 517.243 2765.63 517.792 L 2772.75 520.267 C 2774.67 520.818 2775.76 523.017 2775.21 524.942 L 2773.57 567.842 C 2773.02 570.043 2771.1 571.142 2770.01 571.142 C 2767.82 571.142 2761.52 570.043 2760.97 572.243 L 2737.14 642.093 L 2719.61 636.043 L 2743.44 566.192 C 2744.26 563.992 2738.51 560.967 2736.87 559.868 Z" stroke-linecap="round" />
</g>
<g transform="matrix(1 0 0 1 331.19 220.63)"  >
<path style="stroke: rgb(255,153,0); stroke-width: 5.71; stroke-dasharray: none; stroke-linecap: butt; stroke-dashoffset: 0; stroke-linejoin: round; stroke-miterlimit: 10; fill: rgb(0,0,0); fill-opacity: 0; fill-rule: evenodd; opacity: 1;"  transform=" translate(-2719.18, -657.63)" d="M 2738.02 681.366 L 2748.47 650.84 C 2749.3 648.915 2748.2 646.715 2746 645.89 L 2709.97 633.79 C 2708.05 633.24 2705.85 634.065 2705.02 636.265 L 2689.62 681.641" stroke-linecap="round" />
</g>
<g transform="matrix(1 0 0 1 280.11 57.38)"  >
<path style="stroke: rgb(255,153,0); stroke-width: 5.71; stroke-dasharray: none; stroke-linecap: butt; stroke-dashoffset: 0; stroke-linejoin: round; stroke-miterlimit: 10; fill: rgb(0,0,0); fill-opacity: 0; fill-rule: evenodd; opacity: 1;"  transform=" translate(-2668.11, -494.38)" d="M 2660.14 510.802 L 2675.74 514.12 L 2683.54 478.178 L 2667.94 474.861 C 2662.92 473.754 2657.91 477.072 2656.79 482.049 L 2652.89 499.743 C 2651.78 504.719 2655.12 509.696 2660.14 510.802 Z" stroke-linecap="round" />
</g>
</svg>