<?xml version="1.0" encoding="UTF-8" standalone="no"?>
<svg
   viewBox="0 0 450 399.99999"
   xml:space="preserve"
   overflow="hidden"
   version="1.1"
   id="svg9"
   sodipodi:docname="cloud_edited.svg"
   width="450"
   height="400"
   inkscape:version="1.3.2 (091e20e, 2023-11-25)"
   xmlns:inkscape="http://www.inkscape.org/namespaces/inkscape"
   xmlns:sodipodi="http://sodipodi.sourceforge.net/DTD/sodipodi-0.dtd"
   xmlns="http://www.w3.org/2000/svg"
   xmlns:svg="http://www.w3.org/2000/svg"><defs
     id="defs9" /><sodipodi:namedview
     id="namedview9"
     pagecolor="#ffffff"
     bordercolor="#000000"
     borderopacity="0.25"
     inkscape:showpageshadow="2"
     inkscape:pageopacity="0.0"
     inkscape:pagecheckerboard="0"
     inkscape:deskcolor="#d1d1d1"
     showguides="true"
     inkscape:zoom="1.0243021"
     inkscape:cx="287.51283"
     inkscape:cy="158.15647"
     inkscape:window-width="1400"
     inkscape:window-height="755"
     inkscape:window-x="0"
     inkscape:window-y="43"
     inkscape:window-maximized="0"
     inkscape:current-layer="svg9" /><g
     transform="translate(-2546.3242,-1135.2954)"
     id="g9"
     inkscape:transform-center-x="-214.80158"
     inkscape:transform-center-y="192.73664"><g
       id="g8"><path
         d="m 2629.5,1364.5 h 80"
         stroke="#ff9900"
         stroke-width="6.875"
         stroke-linecap="butt"
         stroke-linejoin="round"
         stroke-miterlimit="10"
         stroke-opacity="1"
         fill="none"
         fill-rule="evenodd"
         id="path1" /><path
         d="m 2719.19,1415.5 h -97.06 c -8.06,-0.03 -15.97,-2.29 -22.83,-6.52 -24.59,-14.61 -39.41,-41.32 -38.78,-69.91 0,-46.34 30.9,-66.61 58.09,-73.5 -0.54,-4.35 -0.8,-8.72 -0.8,-13.1 0,-37.78 26.08,-81.31 63.56,-96.85 47.92,-19.99 91.83,-4.85 120.66,23.54 13.32,13.48 23.46,29.77 29.69,47.67 8.3,-11.35 21.47,-18.11 35.54,-18.23 22.46,0 45.11,17.8 47.67,54.81 l -0.18,0.86 c 24.93,4.17 68.75,21.38 68.75,75.42 0,43.4 -27.32,62.28 -47.96,70.34"
         stroke="#a6a6a6"
         stroke-width="6.875"
         stroke-linecap="butt"
         stroke-linejoin="round"
         stroke-miterlimit="10"
         stroke-opacity="1"
         fill="none"
         fill-rule="evenodd"
         id="path2" /><path
         d="m 2920.5,1380.5 c 0,47.5 -38.28,86 -85.5,86 -47.22,0 -85.5,-38.5 -85.5,-86 0,-47.5 38.28,-86 85.5,-86 47.22,0 85.5,38.5 85.5,86 z"
         stroke="#a6a6a6"
         stroke-width="6.875"
         stroke-linecap="butt"
         stroke-linejoin="round"
         stroke-miterlimit="10"
         stroke-opacity="1"
         fill="none"
         fill-rule="evenodd"
         id="path3" /><path
         d="m 2911.93,1421.5 64.47,65.4 c 8.31,8.71 8.1,22.54 -0.46,30.99 -8.37,8.64 -22.09,8.84 -30.7,0.43 l -63.74,-64.2"
         stroke="#a6a6a6"
         stroke-width="6.875"
         stroke-linecap="butt"
         stroke-linejoin="round"
         stroke-miterlimit="10"
         stroke-opacity="1"
         fill="none"
         fill-rule="evenodd"
         id="path4" /><path
         d="m 2606.5,1329.5 h 79"
         stroke="#ff9900"
         stroke-width="6.875"
         stroke-linecap="butt"
         stroke-linejoin="round"
         stroke-miterlimit="10"
         stroke-opacity="1"
         fill="none"
         fill-rule="evenodd"
         id="path5" /><path
         d="m 2703.5,1329.5 h 29"
         stroke="#ff9900"
         stroke-width="6.875"
         stroke-linecap="butt"
         stroke-linejoin="round"
         stroke-miterlimit="10"
         stroke-opacity="1"
         fill="none"
         fill-rule="evenodd"
         id="path6" /><path
         d="m 2657.5,1295.5 h 104"
         stroke="#ff9900"
         stroke-width="6.875"
         stroke-linecap="butt"
         stroke-linejoin="round"
         stroke-miterlimit="10"
         stroke-opacity="1"
         fill="none"
         fill-rule="evenodd"
         id="path7" /><path
         d="m 2766.5,1387.18 h 21.28 l 15.54,-36.36 25.93,75.68 25.42,-98 18.21,58.68 h 21.62"
         stroke="#ff9900"
         stroke-width="6.875"
         stroke-linecap="butt"
         stroke-linejoin="round"
         stroke-miterlimit="10"
         stroke-opacity="1"
         fill="none"
         fill-rule="evenodd"
         id="path8" /></g></g></svg>
